# xmcd
#
# Track frame offsets:
#	150
#	16730
#	27582
#	36535
#	52630
#	64235
#	76697
#	85740
#	96007
#	105835
#	115815
#	126805
#	137732
#	153585
#	165070
#	177225
#
# Disc length: 2534 seconds
#
# Revision: 0
# Processed by: cddbd v1.4b42PL0 Copyright (c) Steve Scherf et al.
# Submitted via: EZCDDA 4.3.3.2
#
DISCID=b609e410
DTITLE=Five Blind Boys of Alabama - Take My Hand Precious Lord
DYEAR=1900
DGENRE=
TTITLE0=Take My Hand Precious Load
TTITLE1=I'm A Rolling
TTITLE2=My Robe Will Fit Me
TTITLE3=Let's Have Church
TTITLE4=All Over Me
TTITLE5=You'll Never Walk Alone
TTITLE6=Old Time Religion
TTITLE7=Wlak With Me
TTITLE8=I Got A Home In That Rock
TTITLE9=Danny Boy
TTITLE10=I Can See Everybody's Mother
TTITLE11=You Don't Know
TTITLE12=How Far Am I Frrom Canaan
TTITLE13=Just A Closer Walk With Thee
TTITLE14=Don't Forget The Bridge
TTITLE15=I Never Heard A Man
EXTD=
EXTT0=
EXTT1=
EXTT2=
EXTT3=
EXTT4=
EXTT5=
EXTT6=
EXTT7=
EXTT8=
EXTT9=
EXTT10=
EXTT11=
EXTT12=
EXTT13=
EXTT14=
EXTT15=
PLAYORDER=
